<svg id="ic_insurance" xmlns="http://www.w3.org/2000/svg" width="37.698" height="44" viewBox="0 0 37.698 44">
  <defs>
    <style>
      .cls-1 {
        fill: #c8cdd0;
      }

      .cls-2 {
        fill: #3498db;
      }
    </style>
  </defs>
  <path id="Path_3" data-name="Path 3" class="cls-1" d="M13.994,21.009l1.388-6.224a9.71,9.71,0,0,1,11.237,2.58.728.728,0,0,0,1.274-.393A14.348,14.348,0,0,0,18.278,1.764,1.58,1.58,0,0,0,15.21,1.08,14.347,14.347,0,0,0,.044,10.762a.728.728,0,0,0,.986.9A9.71,9.71,0,0,1,12.3,14.1l-1.388,6.223A1.194,1.194,0,1,1,8.58,19.8,1.58,1.58,0,0,0,5.5,19.114a4.353,4.353,0,0,0,8.5,1.9Z" transform="translate(-0.007 0)"/>
  <path id="Path_4" data-name="Path 4" class="cls-2" d="M68.234,104.165H65.976a7.905,7.905,0,0,0-7.82-6.819H52.665a7.905,7.905,0,0,0-7.82,6.819H42.588a1.353,1.353,0,0,0,0,2.706h1.6a5.071,5.071,0,0,0-1.071,3.116h0a5.105,5.105,0,0,0,2.136,4.144v3a2.153,2.153,0,0,0,2.146,2.146h0a2.153,2.153,0,0,0,2.146-2.146v-2.041H61.28v2.041a2.153,2.153,0,0,0,2.146,2.146h0a2.153,2.153,0,0,0,2.146-2.146v-3a5.1,5.1,0,0,0,2.136-4.144h0a5.071,5.071,0,0,0-1.071-3.116h1.595a1.353,1.353,0,0,0,0-2.706Zm-20.839,7.394a1.614,1.614,0,1,1,1.614-1.614,1.614,1.614,0,0,1-1.614,1.614Zm.821-6.674a5.067,5.067,0,0,0-1.158.135,5.619,5.619,0,0,1,5.608-5.392h5.491a5.619,5.619,0,0,1,5.608,5.392,5.067,5.067,0,0,0-1.158-.135Zm15.211,6.674a1.613,1.613,0,1,1,1.614-1.613,1.613,1.613,0,0,1-1.614,1.613Z" transform="translate(-31.889 -75.278)"/>
</svg>
