<svg xmlns="http://www.w3.org/2000/svg" width="24.857" height="20.066" viewBox="0 0 24.857 20.066">
  <defs>
    <style>
      .cls-1 {
        fill: #17354b;
      }
    </style>
  </defs>
  <g id="ic_tax" transform="translate(-640.1 370)">
    <path id="Icon_awesome-car" data-name="Icon awesome-car" class="cls-1" d="M21.057,9.217H18.536l-.7-1.752A4.693,4.693,0,0,0,13.456,4.5H8.107a4.694,4.694,0,0,0-4.38,2.965l-.7,1.752H.506a.505.505,0,0,0-.49.628l.253,1.011a.505.505,0,0,0,.49.383H1.6a2.677,2.677,0,0,0-.93,2.022v2.022a2.673,2.673,0,0,0,.674,1.766v2.277A1.348,1.348,0,0,0,2.7,20.672H4.043a1.348,1.348,0,0,0,1.348-1.348V17.977H16.172v1.348a1.348,1.348,0,0,0,1.348,1.348h1.348a1.348,1.348,0,0,0,1.348-1.348V17.047a2.672,2.672,0,0,0,.674-1.766V13.26a2.678,2.678,0,0,0-.929-2.022h.845a.505.505,0,0,0,.49-.383l.253-1.011a.506.506,0,0,0-.491-.628ZM6.23,8.466A2.022,2.022,0,0,1,8.107,7.2h5.349a2.022,2.022,0,0,1,1.877,1.271l.839,2.1H5.391l.839-2.1ZM4.043,15.273A1.271,1.271,0,0,1,2.7,13.93a1.271,1.271,0,0,1,1.348-1.343A2.593,2.593,0,0,1,6.065,14.6C6.065,15.407,4.852,15.273,4.043,15.273Zm13.477,0c-.809,0-2.022.134-2.022-.672a2.593,2.593,0,0,1,2.022-2.015,1.271,1.271,0,0,1,1.348,1.343,1.271,1.271,0,0,1-1.348,1.343Z" transform="translate(643.394 -370.607)"/>
    <path id="Icon_awesome-file-invoice-dollar" data-name="Icon awesome-file-invoice-dollar" class="cls-1" d="M7.939,2.211,5.877.147A.505.505,0,0,0,5.519,0H5.391V2.7h2.7V2.567A.5.5,0,0,0,7.939,2.211Zm-3.222.653V0H.505A.5.5,0,0,0,0,.505v9.771a.5.5,0,0,0,.505.505H7.581a.5.5,0,0,0,.505-.505V3.369H5.222A.507.507,0,0,1,4.717,2.864ZM1.348,1.516a.168.168,0,0,1,.168-.168H3.2a.168.168,0,0,1,.168.168v.337a.168.168,0,0,1-.168.168H1.516a.168.168,0,0,1-.168-.168Zm0,1.685V2.864A.168.168,0,0,1,1.516,2.7H3.2a.168.168,0,0,1,.168.168V3.2a.168.168,0,0,1-.168.168H1.516A.168.168,0,0,1,1.348,3.2ZM4.38,8.757v.508a.168.168,0,0,1-.168.168H3.875a.168.168,0,0,1-.168-.168V8.754a1.206,1.206,0,0,1-.661-.239.169.169,0,0,1-.012-.256l.247-.236a.173.173,0,0,1,.213-.015.507.507,0,0,0,.27.078h.592A.265.265,0,0,0,4.6,7.808.275.275,0,0,0,4.42,7.54l-.948-.284a.953.953,0,0,1-.665-.914.938.938,0,0,1,.9-.949V4.885a.168.168,0,0,1,.168-.168h.337a.168.168,0,0,1,.168.168V5.4a1.2,1.2,0,0,1,.661.239.169.169,0,0,1,.012.256L4.8,6.128a.173.173,0,0,1-.213.015.505.505,0,0,0-.27-.078H3.73a.265.265,0,0,0-.248.278.275.275,0,0,0,.185.268l.948.284a.953.953,0,0,1,.665.914A.938.938,0,0,1,4.38,8.757Z" transform="translate(640.1 -370)"/>
  </g>
</svg>
